<svg xmlns="http://www.w3.org/2000/svg" id="canvas" viewBox="448.832 276.080 368.019 140.064"><path d="M 516.11,317.43 C 515.70 316.64, 515.07 316.07, 513.56 315.62 C 512.05 315.16, 510.96 314.87, 508.55 315.15 C 506.14 315.43, 504.58 315.60, 501.53 317.02 C 498.47 318.43, 496.87 319.51, 493.29 322.21 C 489.71 324.91, 487.67 326.54, 483.62 330.50 C 479.57 334.45, 477.14 336.83, 473.03 341.98 C 468.93 347.13, 466.59 350.31, 463.09 356.25 C 459.59 362.19, 457.74 365.72, 455.52 371.68 C 453.30 377.64, 452.42 380.77, 452.01 386.04 C 451.59 391.32, 451.85 394.02, 453.46 398.05 C 455.06 402.08, 456.57 404.00, 460.05 406.20 C 463.54 408.40, 466.08 408.89, 470.89 409.05 C 475.69 409.22, 478.55 408.70, 484.07 407.01 C 489.59 405.33, 492.75 403.95, 498.48 400.65 C 504.21 397.35, 507.37 395.11, 512.71 390.50 C 518.05 385.90, 520.73 383.08, 525.19 377.63 C 529.65 372.17, 531.83 369.04, 535.01 363.23 C 538.18 357.42, 539.47 354.20, 541.05 348.57 C 542.64 342.94, 542.96 340.01, 542.92 335.08 C 542.89 330.15, 542.38 327.77, 540.87 323.91 C 539.36 320.05, 537.98 318.33, 535.36 315.78 C 532.74 313.23, 530.86 312.22, 527.79 311.15 C 524.71 310.08, 522.63 310.17, 519.99 310.42 C 517.35 310.67, 515.61 311.60, 514.59 312.41 C 513.57 313.23, 513.82 314.00, 514.90 314.51 C 515.98 315.02, 517.72 314.74, 520.01 314.96 C 522.30 315.19, 523.79 314.90, 526.33 315.65 C 528.87 316.40, 530.42 316.79, 532.70 318.70 C 534.99 320.61, 536.31 321.91, 537.77 325.20 C 539.24 328.49, 539.87 330.60, 540.04 335.14 C 540.20 339.68, 540.01 342.51, 538.60 347.90 C 537.18 353.30, 535.98 356.46, 532.95 362.11 C 529.91 367.77, 527.77 370.86, 523.42 376.18 C 519.07 381.50, 516.42 384.26, 511.18 388.71 C 505.94 393.15, 502.80 395.30, 497.21 398.41 C 491.62 401.51, 488.49 402.74, 483.25 404.23 C 478.01 405.72, 475.30 406.03, 471.00 405.87 C 466.70 405.71, 464.71 405.24, 461.76 403.45 C 458.81 401.66, 457.67 400.36, 456.26 396.92 C 454.86 393.47, 454.40 391.12, 454.73 386.24 C 455.05 381.37, 455.78 378.29, 457.88 372.55 C 459.98 366.81, 461.78 363.30, 465.22 357.52 C 468.67 351.74, 471.00 348.61, 475.10 343.66 C 479.21 338.72, 481.67 336.41, 485.75 332.78 C 489.83 329.14, 491.95 327.62, 495.51 325.47 C 499.06 323.32, 500.73 322.92, 503.51 322.03 C 506.29 321.13, 507.44 321.35, 509.39 321.00 C 511.35 320.65, 512.03 320.57, 513.29 320.27 C 514.54 319.98, 515.09 320.11, 515.65 319.54 C 516.22 318.97, 516.53 318.21, 516.11 317.43" style="stroke: black; fill: black;"/><path d="M 599.65,344.63 C 598.60 344.96, 597.66 345.38, 596.10 347.42 C 594.54 349.45, 593.89 351.18, 591.84 354.81 C 589.79 358.44, 588.41 360.87, 585.84 365.56 C 583.27 370.25, 581.67 373.21, 579.00 378.24 C 576.32 383.28, 574.79 386.16, 572.49 390.75 C 570.19 395.34, 568.92 397.63, 567.48 401.20 C 566.05 404.77, 565.71 406.35, 565.32 408.60 C 564.92 410.86, 565.22 411.64, 565.52 412.47 C 565.82 413.30, 566.20 413.33, 566.80 412.74 C 567.39 412.15, 567.66 411.54, 568.49 409.51 C 569.32 407.47, 569.57 406.05, 570.94 402.58 C 572.31 399.10, 573.19 396.72, 575.35 392.15 C 577.51 387.58, 579.04 384.69, 581.75 379.73 C 584.47 374.77, 586.16 371.88, 588.92 367.34 C 591.69 362.81, 593.34 360.55, 595.58 357.06 C 597.81 353.58, 598.94 352.19, 600.09 349.94 C 601.24 347.68, 601.41 346.84, 601.32 345.78 C 601.23 344.72, 600.69 344.31, 599.65 344.63" style="stroke: black; fill: black;"/><path d="M 568.98,361.22 C 568.75 361.90, 568.79 362.12, 569.18 363.38 C 569.58 364.64, 569.73 365.54, 570.98 367.52 C 572.24 369.49, 573.36 370.64, 575.47 373.24 C 577.58 375.84, 578.95 377.53, 581.54 380.51 C 584.14 383.49, 585.51 385.26, 588.45 388.12 C 591.39 390.98, 592.99 392.52, 596.25 394.79 C 599.51 397.06, 601.27 398.12, 604.76 399.47 C 608.26 400.83, 610.09 401.31, 613.74 401.55 C 617.38 401.79, 619.63 401.41, 622.99 400.65 C 626.35 399.89, 628.18 399.14, 630.54 397.77 C 632.91 396.40, 634.16 394.94, 634.81 393.79 C 635.46 392.65, 635.03 392.08, 633.79 392.03 C 632.55 391.97, 630.99 392.73, 628.61 393.52 C 626.22 394.31, 624.81 395.23, 621.88 395.98 C 618.94 396.72, 617.06 397.30, 613.93 397.24 C 610.80 397.17, 609.29 396.80, 606.22 395.65 C 603.15 394.50, 601.53 393.58, 598.57 391.48 C 595.60 389.39, 594.07 387.96, 591.38 385.19 C 588.70 382.41, 587.40 380.68, 585.15 377.61 C 582.90 374.55, 581.91 372.62, 580.12 369.86 C 578.32 367.09, 577.66 365.63, 576.18 363.79 C 574.70 361.95, 573.87 361.41, 572.71 360.65 C 571.55 359.89, 571.12 359.86, 570.37 359.98 C 569.63 360.09, 569.22 360.54, 568.98 361.22" style="stroke: black; fill: black;"/><path d="M 667.75,348.84 C 666.89 349.43, 666.36 350.02, 665.38 352.31 C 664.40 354.59, 664.03 356.39, 662.85 360.26 C 661.67 364.13, 660.93 367.03, 659.46 371.67 C 658.00 376.31, 657.03 379.15, 655.54 383.47 C 654.04 387.80, 653.02 390.05, 651.98 393.28 C 650.93 396.52, 650.58 397.74, 650.33 399.64 C 650.07 401.54, 650.46 402.04, 650.70 402.77 C 650.94 403.50, 651.30 403.20, 651.52 403.29 C 651.74 403.37, 651.62 403.23, 651.79 403.19 C 651.96 403.14, 651.91 403.56, 652.36 403.06 C 652.82 402.56, 653.33 402.37, 654.07 400.68 C 654.81 398.99, 655.06 397.79, 656.08 394.60 C 657.10 391.40, 657.72 389.03, 659.16 384.70 C 660.60 380.37, 661.66 377.54, 663.28 372.94 C 664.90 368.34, 665.94 365.55, 667.27 361.70 C 668.60 357.85, 669.44 356.17, 669.92 353.70 C 670.40 351.23, 670.11 350.33, 669.68 349.36 C 669.24 348.39, 668.61 348.25, 667.75 348.84" style="stroke: black; fill: black;"/><path d="M 693.05,292.00 C 693.65 291.41, 693.50 290.94, 693.20 290.83 C 692.90 290.71, 692.12 291.11, 691.56 291.42 C 691.00 291.72, 690.86 291.94, 690.39 292.36 C 689.92 292.78, 689.25 293.25, 689.22 293.53 C 689.19 293.81, 689.47 294.06, 690.24 293.76 C 691.01 293.45, 692.46 292.58, 693.05 292.00" style="stroke: black; fill: black;"/><path d="M 743.51,279.48 C 742.52 280.26, 741.92 281.09, 740.31 284.24 C 738.70 287.38, 738.00 289.64, 735.48 295.21 C 732.95 300.77, 731.34 304.56, 727.68 312.08 C 724.01 319.59, 721.55 324.26, 717.14 332.77 C 712.73 341.28, 710.00 346.25, 705.60 354.63 C 701.21 363.01, 698.73 367.51, 695.16 374.67 C 691.59 381.83, 689.76 385.12, 687.77 390.42 C 685.77 395.73, 684.81 397.91, 685.18 401.20 C 685.54 404.49, 687.21 405.57, 689.60 406.88 C 691.99 408.19, 694.25 407.88, 697.11 407.74 C 699.96 407.59, 701.61 407.06, 703.87 406.15 C 706.13 405.24, 707.21 404.29, 708.41 403.18 C 709.61 402.08, 709.64 401.41, 709.86 400.62 C 710.09 399.83, 709.69 399.57, 709.53 399.23 C 709.37 398.89, 709.20 398.90, 709.07 398.92 C 708.95 398.94, 708.96 399.28, 708.89 399.33 C 708.82 399.38, 708.91 399.26, 708.73 399.15 C 708.55 399.04, 708.54 398.79, 707.99 398.79 C 707.44 398.79, 707.25 398.79, 705.99 399.15 C 704.74 399.51, 703.67 399.88, 701.73 400.59 C 699.78 401.30, 698.47 402.02, 696.29 402.69 C 694.11 403.36, 692.44 404.30, 690.82 403.94 C 689.20 403.59, 688.37 403.47, 688.20 400.92 C 688.04 398.38, 688.24 396.30, 689.98 391.22 C 691.72 386.14, 693.46 382.67, 696.90 375.52 C 700.34 368.36, 702.80 363.83, 707.19 355.45 C 711.57 347.08, 714.30 342.11, 718.80 333.64 C 723.30 325.17, 725.83 320.53, 729.69 313.09 C 733.55 305.66, 735.32 301.93, 738.10 296.47 C 740.88 291.01, 742.14 289.02, 743.58 285.80 C 745.02 282.57, 745.31 281.60, 745.29 280.34 C 745.28 279.08, 744.51 278.71, 743.51 279.48" style="stroke: black; fill: black;"/><path d="M 813.64,342.68 C 813.15 341.80, 812.49 340.83, 810.45 340.24 C 808.41 339.64, 806.79 339.20, 803.44 339.70 C 800.09 340.20, 798.05 340.84, 793.69 342.73 C 789.33 344.61, 786.62 345.95, 781.64 349.13 C 776.66 352.31, 773.72 354.53, 768.79 358.63 C 763.85 362.74, 760.93 365.17, 756.96 369.66 C 752.98 374.15, 751.04 376.69, 748.90 381.08 C 746.75 385.47, 745.96 387.81, 746.24 391.60 C 746.53 395.40, 747.36 397.46, 750.32 400.06 C 753.28 402.65, 755.53 403.64, 761.04 404.57 C 766.55 405.49, 771.05 405.15, 777.87 404.68 C 784.69 404.21, 789.08 403.26, 795.12 402.23 C 801.16 401.20, 805.57 400.53, 808.08 399.55 C 810.58 398.56, 810.32 397.28, 807.64 397.30 C 804.97 397.32, 800.70 398.73, 794.71 399.63 C 788.71 400.54, 784.32 401.41, 777.69 401.80 C 771.05 402.19, 766.60 402.42, 761.54 401.58 C 756.49 400.75, 754.83 399.66, 752.41 397.62 C 750.00 395.58, 749.65 394.44, 749.48 391.39 C 749.32 388.34, 749.68 386.37, 751.59 382.38 C 753.50 378.40, 755.24 375.81, 759.03 371.49 C 762.82 367.16, 765.70 364.72, 770.55 360.78 C 775.40 356.84, 778.36 354.66, 783.26 351.78 C 788.17 348.91, 790.92 347.76, 795.09 346.39 C 799.26 345.01, 801.18 345.25, 804.12 344.92 C 807.06 344.60, 808.04 344.83, 809.81 344.78 C 811.57 344.72, 812.16 345.06, 812.93 344.64 C 813.69 344.22, 814.14 343.56, 813.64 342.68" style="stroke: black; fill: black;"/></svg>